<?xml version="1.0" standalone="no"?>
<!DOCTYPE svg PUBLIC "-//W3C//DTD SVG 20010904//EN"
 "http://www.w3.org/TR/2001/REC-SVG-20010904/DTD/svg10.dtd">
<svg version="1.0" xmlns="http://www.w3.org/2000/svg"
 width="700.000000pt" height="700.000000pt" viewBox="0 0 700.000000 700.000000"
 preserveAspectRatio="xMidYMid meet">
<metadata>
Created by potrace 1.14, written by Peter Selinger 2001-2017
</metadata>
<g transform="translate(0.000000,700.000000) scale(0.100000,-0.100000)"
fill="#000000" stroke="none">
<path d="M3379 6624 c-164 -25 -212 -46 -509 -222 -107 -63 -204 -120 -215
-126 -11 -6 -31 -19 -45 -27 -14 -9 -131 -78 -260 -154 -129 -76 -296 -174
-370 -218 -74 -44 -148 -87 -165 -97 -41 -23 -260 -153 -489 -288 -103 -62
-190 -112 -193 -112 -17 0 -161 -107 -214 -160 -84 -83 -130 -148 -179 -253
-45 -95 -67 -173 -77 -267 -9 -84 -9 -2234 0 -2320 7 -71 50 -224 68 -246 6
-8 9 -14 6 -14 -11 0 66 -124 117 -189 56 -71 154 -153 264 -221 41 -25 84
-52 97 -60 33 -21 162 -102 191 -120 13 -8 98 -62 189 -120 91 -58 173 -110
182 -115 22 -13 87 -54 173 -110 59 -38 609 -386 647 -410 9 -5 60 -37 112
-71 53 -33 124 -78 159 -100 34 -21 93 -58 130 -82 238 -151 462 -190 732
-128 92 22 223 96 690 392 737 467 1114 706 1160 734 169 105 401 254 430 277
177 140 302 361 327 576 8 77 9 2218 1 2319 -16 186 -111 388 -246 523 -91 91
-160 137 -547 365 -170 101 -323 191 -340 201 -16 10 -41 24 -55 32 -28 15
-54 31 -700 413 -250 148 -496 290 -546 315 -160 80 -352 110 -525 83z m239
-438 c49 -10 139 -60 522 -286 850 -502 1179 -695 1270 -748 52 -31 118 -70
147 -89 29 -18 55 -33 58 -33 3 0 32 -18 64 -40 109 -75 167 -144 207 -250 16
-41 18 -136 19 -1176 2 -1226 3 -1188 -52 -1289 -47 -87 -89 -120 -390 -311
-164 -103 -327 -206 -363 -229 -36 -23 -202 -129 -370 -235 -168 -106 -413
-261 -545 -345 -482 -304 -503 -317 -568 -335 -82 -23 -193 -19 -265 8 -29 11
-113 59 -185 105 -73 46 -226 144 -342 217 -224 141 -322 203 -450 285 -90 57
-717 454 -743 470 -9 6 -52 33 -97 61 -44 28 -123 77 -175 110 -52 32 -117 80
-143 107 -50 49 -99 141 -115 212 -12 58 -7 2282 5 2320 38 113 128 223 226
275 26 14 131 75 234 136 104 61 312 183 463 272 151 89 280 166 287 172 7 5
14 10 17 10 2 0 78 43 168 97 90 53 251 148 358 211 107 63 250 148 318 189
108 64 187 100 257 116 23 5 148 0 183 -7z"/>
<path d="M2870 4882 c-35 -10 -94 -45 -112 -65 -10 -12 -28 -40 -38 -62 -41
-85 -44 -75 270 -861 l291 -726 1 -435 c0 -269 4 -448 11 -468 14 -48 61 -102
110 -127 113 -58 267 7 305 128 7 22 11 189 11 468 l0 434 291 726 c314 786
311 776 270 861 -26 54 -50 80 -96 104 -86 44 -182 30 -251 -37 -32 -32 -52
-71 -122 -247 -45 -116 -89 -223 -96 -240 -7 -16 -57 -141 -111 -277 -54 -137
-101 -248 -104 -248 -3 0 -66 152 -139 338 -74 185 -138 344 -142 352 -4 8
-31 75 -60 149 -57 144 -90 190 -156 218 -37 15 -107 23 -133 15z"/>
</g>
</svg>
