<?xml version="1.0" encoding="UTF-8"?>
<!DOCTYPE svg PUBLIC "-//W3C//DTD SVG 1.1//EN" "http://www.w3.org/Graphics/SVG/1.1/DTD/svg11.dtd">
<svg xmlns="http://www.w3.org/2000/svg" version="1.1" width="300px" height="300px" style="shape-rendering:geometricPrecision; text-rendering:geometricPrecision; image-rendering:optimizeQuality; fill-rule:evenodd; clip-rule:evenodd" xmlns:xlink="http://www.w3.org/1999/xlink">
<g><path style="opacity:0.98" fill="#55c500" d="M 131.5,-0.5 C 143.5,-0.5 155.5,-0.5 167.5,-0.5C 241.833,13.1667 285.833,57.1667 299.5,131.5C 299.5,143.5 299.5,155.5 299.5,167.5C 296.976,185.909 291.309,203.409 282.5,220C 280.177,219.694 277.844,219.028 275.5,218C 268.143,217.586 260.81,217.586 253.5,218C 246.145,213.59 241.811,207.257 240.5,199C 252.628,157.018 244.461,119.518 216,86.5C 214.929,75.8616 214.262,65.1949 214,54.5C 213.115,50.2626 210.615,48.4293 206.5,49C 198.732,53.6333 190.899,58.1333 183,62.5C 150.109,49.6781 119.609,53.8448 91.5,75C 89.5,75.6667 87.5,75.6667 85.5,75C 79.0539,73.2635 72.5539,71.7635 66,70.5C 62.3311,70.5814 60.1645,72.4148 59.5,76C 61.9114,85.1454 64.2447,94.3121 66.5,103.5C 49.5034,135.741 47.0034,169.075 59,203.5C 73.1607,232.959 96.6607,249.125 129.5,252C 156.859,254.57 182.859,249.903 207.5,238C 212.642,234.358 217.642,230.525 222.5,226.5C 231.058,240.055 243.058,249.055 258.5,253.5C 233.454,279.19 203.121,294.523 167.5,299.5C 155.5,299.5 143.5,299.5 131.5,299.5C 57.1667,285.833 13.1667,241.833 -0.5,167.5C -0.5,155.5 -0.5,143.5 -0.5,131.5C 13.1667,57.1667 57.1667,13.1667 131.5,-0.5 Z"/></g>
<g><path style="opacity:0.978" fill="#55c500" d="M 139.5,70.5 C 168.582,68.3707 190.249,79.8707 204.5,105C 209.706,104 214.873,102.5 220,100.5C 222.009,101.482 222.509,102.815 221.5,104.5C 216.462,106.235 211.462,108.068 206.5,110C 207.167,111 207.833,112 208.5,113C 213.147,113.005 217.814,112.838 222.5,112.5C 222.64,114.124 221.973,115.29 220.5,116C 216.63,116.105 212.963,116.938 209.5,118.5C 210.04,119.748 210.707,120.915 211.5,122C 216.077,122.534 220.411,123.7 224.5,125.5C 224.081,126.672 223.415,127.672 222.5,128.5C 218.99,127.434 215.49,126.434 212,125.5C 214.819,149.714 204.986,166.214 182.5,175C 157.74,183.422 132.74,184.422 107.5,178C 90.6091,170.413 82.1091,157.246 82,138.5C 78.1949,141.155 74.0283,142.822 69.5,143.5C 69.238,142.022 69.5713,140.689 70.5,139.5C 74.1667,138 77.8333,136.5 81.5,135C 82.3802,133.644 82.7135,132.144 82.5,130.5C 78.0983,130.228 73.7649,130.561 69.5,131.5C 68.5713,130.311 68.238,128.978 68.5,127.5C 73.2595,127.487 77.9262,126.82 82.5,125.5C 82.8333,124.833 83.1667,124.167 83.5,123.5C 78.9587,122.05 74.292,121.217 69.5,121C 67.8934,119.951 67.2267,118.451 67.5,116.5C 72.17,117.072 76.8367,117.739 81.5,118.5C 82.5,118.167 83.5,117.833 84.5,117.5C 93.928,91.3025 112.261,75.6358 139.5,70.5 Z"/></g>
</svg>
